<svg width="20" height="21" viewBox="0 0 20 21" fill="none" xmlns="http://www.w3.org/2000/svg">
<g clip-path="url(#clip0)">
<path d="M10 0.499992C8.01156 0.502226 6.1052 1.29312 4.69917 2.69916C3.29313 4.1052 2.50223 6.01155 2.5 7.99999C2.5 13.2844 9.12854 19.9737 9.41073 20.2559C9.56804 20.4103 9.77962 20.4967 10 20.4967C10.2204 20.4967 10.432 20.4103 10.5893 20.2559C10.8715 19.9737 17.5 13.2844 17.5 7.99999C17.4978 6.01155 16.7069 4.1052 15.3008 2.69916C13.8948 1.29312 11.9884 0.502226 10 0.499992V0.499992ZM10 13C9.01109 13 8.04439 12.7067 7.22215 12.1573C6.3999 11.6079 5.75904 10.827 5.3806 9.91341C5.00216 8.99978 4.90315 7.99445 5.09607 7.02454C5.289 6.05464 5.7652 5.16372 6.46447 4.46446C7.16373 3.7652 8.05464 3.28899 9.02455 3.09607C9.99445 2.90314 10.9998 3.00216 11.9134 3.38059C12.827 3.75903 13.6079 4.3999 14.1573 5.22214C14.7068 6.04439 15 7.01109 15 7.99999C15 9.32607 14.4732 10.5978 13.5355 11.5355C12.5979 12.4732 11.3261 13 10 13Z" fill="white"/>
</g>
<defs>
<clipPath id="clip0">
<rect width="20" height="20" fill="white" transform="translate(0 0.5)"/>
</clipPath>
</defs>
</svg>
