<svg width="20" height="21" viewBox="0 0 20 21" fill="none" xmlns="http://www.w3.org/2000/svg">
<path d="M19.8239 4.47343L13.7583 10.5L19.8239 16.5265C19.9335 16.2973 20.0001 16.0439 20.0001 15.7734V5.22652C20.0001 4.95593 19.9335 4.70261 19.8239 4.47343Z" fill="white"/>
<path d="M18.2423 3.46875H1.75797C1.48738 3.46875 1.23406 3.53527 1.00488 3.64492L8.75735 11.3583C9.44281 12.0438 10.5575 12.0438 11.243 11.3583L18.9954 3.64492C18.7663 3.53527 18.5129 3.46875 18.2423 3.46875Z" fill="white"/>
<path d="M0.176172 4.47343C0.0665234 4.70261 0 4.95593 0 5.22652V15.7734C0 16.044 0.0665234 16.2973 0.176172 16.5265L6.24176 10.5L0.176172 4.47343Z" fill="white"/>
<path d="M12.9298 11.3285L12.0715 12.1869C10.9294 13.329 9.0709 13.329 7.92875 12.1869L7.07047 11.3285L1.00488 17.3551C1.23406 17.4647 1.48738 17.5312 1.75797 17.5312H18.2423C18.5129 17.5312 18.7663 17.4647 18.9954 17.3551L12.9298 11.3285Z" fill="white"/>
</svg>
