<svg width="21" height="20" viewBox="0 0 21 20" fill="none" xmlns="http://www.w3.org/2000/svg">
<g clip-path="url(#clip0)">
<path d="M18.9351 2.9688H2.45068C1.47947 2.9688 0.692871 3.76028 0.692871 4.72661V15.2735C0.692871 16.2456 1.48525 17.0313 2.45068 17.0313H18.9351C19.8981 17.0313 20.6929 16.2489 20.6929 15.2735V4.72661C20.6929 3.762 19.9094 2.9688 18.9351 2.9688ZM18.6889 4.14067C18.3297 4.4979 12.1492 10.6459 11.9358 10.8581C11.6038 11.1902 11.1624 11.373 10.6929 11.373C10.2233 11.373 9.78193 11.1901 9.44881 10.857C9.30529 10.7143 3.19299 4.63419 2.69686 4.14067H18.6889ZM1.86475 15.035V4.96587L6.92873 10.0032L1.86475 15.035ZM2.6976 15.8594L7.75959 10.8296L8.62127 11.6868C9.17463 12.2401 9.91033 12.5449 10.6929 12.5449C11.4754 12.5449 12.2111 12.2401 12.7634 11.6879L13.6262 10.8296L18.6881 15.8594H2.6976ZM19.521 15.035L14.457 10.0032L19.521 4.96587V15.035Z" fill="white"/>
</g>
<defs>
<clipPath id="clip0">
<rect width="20" height="20" fill="white" transform="translate(0.692871)"/>
</clipPath>
</defs>
</svg>
