<svg width="51" height="50" viewBox="0 0 51 50" fill="none" xmlns="http://www.w3.org/2000/svg">
<path d="M25.6929 49.9999C39.5 49.9999 50.6929 38.807 50.6929 24.9999C50.6929 11.1928 39.5 -7.62939e-05 25.6929 -7.62939e-05C11.8858 -7.62939e-05 0.692871 11.1928 0.692871 24.9999C0.692871 38.807 11.8858 49.9999 25.6929 49.9999Z" fill="#3A8BF4"/>
<path d="M31.9778 25.9785H27.5169V42.3213H20.7582V25.9785H17.5437V20.235H20.7582V16.5183C20.7582 13.8604 22.0207 9.69852 27.577 9.69852L32.5835 9.71946V15.2945H28.951C28.3551 15.2945 27.5173 15.5922 27.5173 16.8601V20.2403H32.5683L31.9778 25.9785Z" fill="white"/>
</svg>
