<svg width="51" height="50" viewBox="0 0 51 50" fill="none" xmlns="http://www.w3.org/2000/svg">
<circle cx="25.6929" cy="24.9999" r="25" fill="white"/>
<path d="M16.4136 28.4769L15.2533 32.8084L11.0125 32.8981C9.74512 30.5474 9.02625 27.8579 9.02625 24.9998C9.02625 22.2361 9.69838 19.6298 10.8898 17.335H10.8907L14.6662 18.0272L16.3201 21.78C15.974 22.7892 15.7853 23.8725 15.7853 24.9998C15.7854 26.2233 16.007 27.3955 16.4136 28.4769Z" fill="#FBBB00"/>
<path d="M42.0684 21.8864C42.2598 22.8946 42.3596 23.9358 42.3596 24.9999C42.3596 26.1931 42.2341 27.3571 41.9951 28.4798C41.1838 32.3003 39.0638 35.6364 36.127 37.9972L36.1261 37.9963L31.3707 37.7536L30.6976 33.5521C32.6463 32.4093 34.1692 30.6208 34.9714 28.4798H26.0593V21.8864H35.1014H42.0684Z" fill="#518EF8"/>
<path d="M36.126 37.9962L36.1269 37.9972C33.2707 40.2929 29.6425 41.6666 25.6928 41.6666C19.3458 41.6666 13.8275 38.119 11.0125 32.8983L16.4136 28.4771C17.821 32.2334 21.4447 34.9074 25.6928 34.9074C27.5188 34.9074 29.2295 34.4138 30.6974 33.5521L36.126 37.9962Z" fill="#28B446"/>
<path d="M36.331 12.1702L30.9318 16.5905C29.4126 15.6409 27.6167 15.0923 25.6928 15.0923C21.3484 15.0923 17.657 17.889 16.32 21.7801L10.8906 17.335H10.8896C13.6635 11.987 19.2514 8.33321 25.6928 8.33321C29.7367 8.33321 33.4446 9.7737 36.331 12.1702Z" fill="#F14336"/>
</svg>
