<svg width="21" height="20" viewBox="0 0 21 20" fill="none" xmlns="http://www.w3.org/2000/svg">
<g clip-path="url(#clip0)">
<path d="M16.3179 20H5.06787C4.03455 20 3.19287 19.1593 3.19287 18.125V9.37505C3.19287 8.34081 4.03455 7.50005 5.06787 7.50005H16.3179C17.3512 7.50005 18.1929 8.34081 18.1929 9.37505V18.125C18.1929 19.1593 17.3512 20 16.3179 20ZM5.06787 8.75005C4.72363 8.75005 4.44287 9.03004 4.44287 9.37505V18.125C4.44287 18.47 4.72363 18.75 5.06787 18.75H16.3179C16.6621 18.75 16.9429 18.47 16.9429 18.125V9.37505C16.9429 9.03004 16.6621 8.75005 16.3179 8.75005H5.06787Z" fill="white"/>
<path d="M15.0679 8.75005C14.7229 8.75005 14.4429 8.47005 14.4429 8.12505V5.00005C14.4429 2.93248 12.7604 1.25005 10.6929 1.25005C8.62531 1.25005 6.94287 2.93248 6.94287 5.00005V8.12505C6.94287 8.47005 6.66287 8.75005 6.31787 8.75005C5.97287 8.75005 5.69287 8.47005 5.69287 8.12505V5.00005C5.69287 2.24248 7.9353 4.57764e-05 10.6929 4.57764e-05C13.4504 4.57764e-05 15.6929 2.24248 15.6929 5.00005V8.12505C15.6929 8.47005 15.4129 8.75005 15.0679 8.75005Z" fill="white"/>
</g>
<defs>
<clipPath id="clip0">
<rect width="20" height="20" fill="white" transform="translate(0.692871)"/>
</clipPath>
</defs>
</svg>
