<svg width="51" height="50" viewBox="0 0 51 50" fill="none" xmlns="http://www.w3.org/2000/svg">
<path d="M25.6929 49.9999C39.5 49.9999 50.6929 38.807 50.6929 24.9999C50.6929 11.1928 39.5 -7.62939e-05 25.6929 -7.62939e-05C11.8858 -7.62939e-05 0.692871 11.1928 0.692871 24.9999C0.692871 38.807 11.8858 49.9999 25.6929 49.9999Z" fill="#3A8BF4"/>
<path d="M14.0379 28.426C15.5274 28.426 16.928 28.4161 18.3188 28.426C19.0981 28.4359 19.5222 28.7623 19.6011 29.3854C19.6899 30.1668 19.2362 30.691 18.3879 30.7009C16.7899 30.7207 15.2018 30.7108 13.6039 30.7108C13.1403 30.7108 12.6866 30.7306 12.223 30.7009C11.6509 30.6712 11.0886 30.5525 10.8223 29.9591C10.5461 29.3656 10.7434 28.8315 11.1182 28.3469C12.6372 26.4083 14.1661 24.4598 15.695 22.5212C15.7838 22.4025 15.8726 22.2838 15.9614 22.175C15.8726 22.0068 15.7246 22.086 15.6063 22.086C14.541 22.0761 13.4658 22.086 12.4005 22.0761C12.1539 22.0761 11.9073 22.0563 11.6706 21.9969C11.1774 21.8684 10.8716 21.4727 10.8716 20.998C10.8716 20.5232 11.1577 20.1177 11.6509 19.9792C11.8876 19.91 12.1342 19.8902 12.3808 19.8902C14.1365 19.8803 15.9022 19.8803 17.658 19.8902C17.9736 19.8902 18.2794 19.9001 18.5852 19.999C19.2559 20.2265 19.542 20.8496 19.2756 21.5024C19.0389 22.0662 18.6641 22.5508 18.2892 23.0355C16.9872 24.6675 15.6852 26.3094 14.393 27.9512C14.2944 28.0798 14.1957 28.2084 14.0379 28.426Z" fill="white"/>
<path d="M25.48 23.2137C25.7167 22.9071 25.9633 22.6202 26.3677 22.5411C27.147 22.3829 27.8769 22.8873 27.8868 23.6786C27.9164 25.6567 27.9065 27.6349 27.8868 29.6131C27.8868 30.1571 27.5514 30.5626 27.0681 30.7308C26.5551 30.9088 26.0324 30.7802 25.6871 30.345C25.5194 30.1373 25.4504 30.0977 25.2137 30.2857C24.316 31.0176 23.3001 31.1462 22.2052 30.7901C20.4494 30.2164 19.7293 28.8416 19.5321 27.1602C19.3249 25.3501 19.9266 23.8071 21.5344 22.8576C22.8858 22.0762 24.247 22.1356 25.48 23.2137ZM21.9882 26.8338C21.998 27.17 22.1065 27.6349 22.4024 28.0305C23.0436 28.8911 24.3555 28.8911 24.9868 28.0305C25.5392 27.2788 25.5392 26.0425 24.9868 25.2908C24.6909 24.8951 24.3062 24.6874 23.813 24.6578C22.7378 24.5984 21.9783 25.4391 21.9882 26.8338Z" fill="white"/>
<path d="M32.3157 26.893C32.2368 24.351 33.9038 22.452 36.2612 22.3827C38.7765 22.3036 40.6112 23.9949 40.6901 26.4676C40.769 28.97 39.2401 30.7405 36.8827 30.9779C34.318 31.2252 32.2762 29.3558 32.3157 26.893ZM34.7915 26.6457C34.7915 27.1501 34.9099 27.6249 35.2157 28.0304C35.8371 28.8711 37.1391 28.881 37.7704 28.0502C38.3425 27.2985 38.3425 26.0324 37.7803 25.2807C37.4844 24.8851 37.0898 24.6873 36.6065 24.6576C35.5412 24.5983 34.8014 25.4192 34.7915 26.6457Z" fill="white"/>
<path d="M31.4477 24.9248C31.4477 26.4578 31.4576 27.9909 31.4477 29.524C31.4379 30.4043 30.6685 30.9978 29.8399 30.7802C29.3467 30.6516 28.9719 30.1274 28.9719 29.5042C28.9719 26.8832 28.9719 24.2621 28.9719 21.641C28.9719 21.1761 28.962 20.7211 28.9719 20.2563C28.9818 19.4947 29.4651 19.0001 30.195 19.0001C30.9447 18.9902 31.4477 19.4848 31.4477 20.2761C31.4576 21.8289 31.4477 23.3719 31.4477 24.9248Z" fill="white"/>
</svg>
