<svg width="168" height="50" viewBox="0 0 168 50" fill="none" xmlns="http://www.w3.org/2000/svg">
<path d="M68.832 26.708L72.912 16.7H77.664L68.832 34.556L59.976 16.7H64.728L68.832 26.708ZM87.4009 27.428V24.308H95.8969C95.9769 25.636 95.8409 26.892 95.4889 28.076C95.1369 29.244 94.5929 30.276 93.8569 31.172C93.1209 32.068 92.2009 32.772 91.0969 33.284C90.0089 33.78 88.7449 34.028 87.3049 34.028C85.5289 34.028 83.9449 33.652 82.5529 32.9C81.1769 32.148 80.0889 31.108 79.2889 29.78C78.5049 28.436 78.1129 26.876 78.1129 25.1C78.1129 23.324 78.5209 21.78 79.3369 20.468C80.1529 19.14 81.2649 18.116 82.6729 17.396C84.0809 16.676 85.6729 16.316 87.4489 16.316C89.2249 16.316 90.7369 16.692 91.9849 17.444C93.2329 18.18 94.2489 19.132 95.0329 20.3L91.4089 22.172C91.0249 21.516 90.5129 20.964 89.8729 20.516C89.2489 20.068 88.4409 19.844 87.4489 19.844C86.5209 19.844 85.6649 20.052 84.8809 20.468C84.1129 20.884 83.4969 21.484 83.0329 22.268C82.5849 23.052 82.3609 23.996 82.3609 25.1C82.3609 26.204 82.5769 27.164 83.0089 27.98C83.4569 28.78 84.0649 29.404 84.8329 29.852C85.6009 30.284 86.4729 30.5 87.4489 30.5C88.6809 30.5 89.6569 30.212 90.3769 29.636C91.0969 29.044 91.5929 28.308 91.8649 27.428H87.4009ZM109.173 33.5L107.589 30.26H102.261L100.701 33.5H96.0932L104.949 15.644L113.781 33.5H109.173ZM104.949 22.892L103.077 27.164H106.797L104.949 22.892ZM116.43 27.98C116.43 28.748 116.59 29.428 116.91 30.02C117.246 30.612 117.694 31.084 118.254 31.436C118.83 31.772 119.478 31.94 120.198 31.94C121.094 31.94 121.894 31.74 122.598 31.34C123.302 30.94 123.782 30.468 124.038 29.924V32.324C123.654 32.772 123.102 33.124 122.382 33.38C121.678 33.62 120.95 33.74 120.198 33.74C119.126 33.74 118.158 33.492 117.294 32.996C116.43 32.5 115.742 31.82 115.23 30.956C114.734 30.076 114.486 29.084 114.486 27.98C114.486 26.86 114.734 25.868 115.23 25.004C115.742 24.14 116.43 23.46 117.294 22.964C118.158 22.468 119.126 22.22 120.198 22.22C120.95 22.22 121.678 22.348 122.382 22.604C123.102 22.844 123.654 23.188 124.038 23.636V26.036C123.782 25.492 123.302 25.02 122.598 24.62C121.894 24.22 121.094 24.02 120.198 24.02C119.478 24.02 118.83 24.188 118.254 24.524C117.694 24.86 117.246 25.332 116.91 25.94C116.59 26.532 116.43 27.212 116.43 27.98ZM127.027 14.78H128.947V33.5H127.027V14.78ZM132.558 17.9C132.558 17.532 132.686 17.22 132.942 16.964C133.214 16.708 133.526 16.58 133.878 16.58C134.246 16.58 134.558 16.708 134.814 16.964C135.07 17.22 135.198 17.532 135.198 17.9C135.198 18.252 135.07 18.564 134.814 18.836C134.558 19.092 134.246 19.22 133.878 19.22C133.526 19.22 133.214 19.092 132.942 18.836C132.686 18.564 132.558 18.252 132.558 17.9ZM132.918 22.46H134.838V33.5H132.918V22.46ZM145.872 26.78C145.872 24.94 145.088 24.02 143.52 24.02C142.688 24.02 142.008 24.276 141.48 24.788C140.968 25.3 140.712 25.964 140.712 26.78V33.5H138.792V22.46H140.712V24.188C141.432 22.876 142.528 22.22 144 22.22C145.168 22.22 146.088 22.612 146.76 23.396C147.448 24.164 147.792 25.212 147.792 26.54V33.5H145.872V26.78ZM151.402 17.9C151.402 17.532 151.53 17.22 151.786 16.964C152.058 16.708 152.37 16.58 152.722 16.58C153.09 16.58 153.402 16.708 153.658 16.964C153.914 17.22 154.042 17.532 154.042 17.9C154.042 18.252 153.914 18.564 153.658 18.836C153.402 19.092 153.09 19.22 152.722 19.22C152.37 19.22 152.058 19.092 151.786 18.836C151.53 18.564 151.402 18.252 151.402 17.9ZM151.762 22.46H153.682V33.5H151.762V22.46ZM158.5 27.98C158.5 28.748 158.66 29.428 158.98 30.02C159.316 30.612 159.764 31.084 160.324 31.436C160.9 31.772 161.548 31.94 162.268 31.94C163.164 31.94 163.964 31.74 164.668 31.34C165.372 30.94 165.852 30.468 166.108 29.924V32.324C165.724 32.772 165.172 33.124 164.452 33.38C163.748 33.62 163.02 33.74 162.268 33.74C161.196 33.74 160.228 33.492 159.364 32.996C158.5 32.5 157.812 31.82 157.3 30.956C156.804 30.076 156.556 29.084 156.556 27.98C156.556 26.86 156.804 25.868 157.3 25.004C157.812 24.14 158.5 23.46 159.364 22.964C160.228 22.468 161.196 22.22 162.268 22.22C163.02 22.22 163.748 22.348 164.452 22.604C165.172 22.844 165.724 23.188 166.108 23.636V26.036C165.852 25.492 165.372 25.02 164.668 24.62C163.964 24.22 163.164 24.02 162.268 24.02C161.548 24.02 160.9 24.188 160.324 24.524C159.764 24.86 159.316 25.332 158.98 25.94C158.66 26.532 158.5 27.212 158.5 27.98Z" fill="#1175BB"/>
<path d="M50 21.6854V28.3146C50 30.3371 48.5393 32.0225 46.7416 32.0225H32.0225V46.7416C32.0225 48.5393 30.3371 50 28.3146 50H21.6854C19.6629 50 17.9775 48.5393 17.9775 46.7416V32.0225H3.25843C1.46067 32.0225 0 30.3371 0 28.3146V21.6854C0 19.6629 1.46067 17.9775 3.25843 17.9775H17.9775V3.25843C17.9775 1.46067 19.6629 0 21.6854 0H28.3146C30.3371 0 32.0225 1.46067 32.0225 3.25843V17.9775H46.7416C48.5393 17.9775 50 19.6629 50 21.6854Z" fill="#1175BB"/>
<path fill-rule="evenodd" clip-rule="evenodd" d="M27.6404 27.8652L28.6517 20.6742C28.6517 20.2247 29.3258 20.2247 29.4382 20.6742L30.3371 25.2809H32.0225C32.2472 25.2809 32.3596 25.3933 32.3596 25.618L32.809 27.0787L34.0449 23.7079C34.1573 23.3708 34.6067 23.3708 34.7191 23.5955L35.7303 25.2809H50V26.0674C49.4382 26.0674 35.7303 26.0674 35.618 26.0674C35.1685 26.0674 35.1685 25.8427 34.4944 24.7191L33.1461 28.427C33.0337 28.764 32.4719 28.764 32.4719 28.427L31.7978 26.0674H30C29.7753 26.0674 29.6629 25.9551 29.5506 25.7303L28.9888 23.0337L27.8652 31.0112C27.8652 31.4607 27.191 31.4607 27.0787 31.0112L26.5169 25.9551C25.8427 25.9551 25.9551 25.9551 25.5056 24.6067C25.3933 25.2809 25.3933 25.9551 24.9438 25.9551H22.4719C22.0225 25.9551 22.0225 25.5056 21.9101 24.9438L21.1236 27.6405C21.0112 27.9775 20.4494 27.9775 20.3371 27.6405L18.6517 19.3258L16.9663 30.6742C16.8539 31.1236 16.2921 31.1236 16.1798 30.6742L15.0562 26.0674L0 25.9551V25.1685C0.449438 25.1685 15.5056 25.2809 15.8427 25.3933C16.1798 25.5056 16.6292 28.0899 16.7416 28.5393L18.427 17.0787C18.5393 16.6292 19.1011 16.6292 19.2135 17.0787L21.0112 26.0674L21.7978 23.3708C21.9101 23.0337 22.4719 23.0337 22.5843 23.3708L23.0337 25.1685H24.7191L25.0562 22.809C25.1685 22.3596 25.7303 22.3596 25.8427 22.809L26.5169 25.1685C26.7416 25.1685 27.191 25.0562 27.3034 25.5056L27.6404 27.8652Z" fill="white"/>
<path fill-rule="evenodd" clip-rule="evenodd" d="M27.6404 27.8652L28.6517 20.6742C28.6517 20.2247 29.3258 20.2247 29.4382 20.6742L30.3371 25.2809H32.0225C32.2472 25.2809 32.3596 25.3933 32.3596 25.618L32.809 27.0787L34.0449 23.7079C34.1573 23.3708 34.6067 23.3708 34.7191 23.5955L35.7303 25.2809H50V21.6854C50 19.5506 48.5393 17.9775 46.7416 17.9775H32.0225V3.25843C32.0225 1.46067 30.3371 0 28.3146 0H21.6854C19.6629 0 17.9775 1.46067 17.9775 3.25843V17.9775H3.25843C1.46067 17.9775 0 19.6629 0 21.6854V25.1685C0.449438 25.1685 15.5056 25.2809 15.8427 25.3933C16.1798 25.5056 16.6292 28.0899 16.7416 28.5393L18.427 17.0787C18.5393 16.6292 19.1011 16.6292 19.2135 17.0787L21.0112 26.0674L21.7978 23.3708C21.9101 23.0337 22.4719 23.0337 22.5843 23.3708L23.0337 25.1685H24.7191L25.0562 22.809C25.1685 22.3595 25.7303 22.3595 25.8427 22.809L26.5169 25.1685C26.7416 25.1685 27.191 25.0562 27.3034 25.5056L27.6404 27.8652Z" fill="#3FBEA9"/>
</svg>
