<svg width="20" height="20" viewBox="0 0 20 20" fill="none" xmlns="http://www.w3.org/2000/svg">
<g clip-path="url(#clip0)">
<path d="M10 0C8.01156 0.00223323 6.1052 0.793127 4.69917 2.19917C3.29313 3.6052 2.50223 5.51156 2.5 7.5C2.5 12.7844 9.12854 19.4737 9.41073 19.7559C9.56804 19.9103 9.77962 19.9967 10 19.9967C10.2204 19.9967 10.432 19.9103 10.5893 19.7559C10.8715 19.4737 17.5 12.7844 17.5 7.5C17.4978 5.51156 16.7069 3.6052 15.3008 2.19917C13.8948 0.793127 11.9884 0.00223323 10 0V0ZM10 12.5C9.01109 12.5 8.04439 12.2068 7.22215 11.6573C6.3999 11.1079 5.75904 10.327 5.3806 9.41342C5.00216 8.49979 4.90315 7.49445 5.09607 6.52455C5.289 5.55464 5.7652 4.66373 6.46447 3.96447C7.16373 3.2652 8.05464 2.789 9.02455 2.59607C9.99445 2.40315 10.9998 2.50216 11.9134 2.8806C12.827 3.25904 13.6079 3.8999 14.1573 4.72215C14.7068 5.54439 15 6.51109 15 7.5C15 8.82608 14.4732 10.0979 13.5355 11.0355C12.5979 11.9732 11.3261 12.5 10 12.5Z" fill="#3FBEA9"/>
</g>
<defs>
<clipPath id="clip0">
<rect width="20" height="20" fill="white"/>
</clipPath>
</defs>
</svg>
