<svg width="20" height="21" viewBox="0 0 20 21" fill="none" xmlns="http://www.w3.org/2000/svg">
<g clip-path="url(#clip0)">
<path d="M19.4281 3.23421C19.1339 2.93948 18.6565 2.93897 18.3623 3.23296L9.31962 12.2518L6.05704 8.70831C5.77513 8.4023 5.29848 8.38245 4.99196 8.66433C4.68567 8.94624 4.66606 9.42312 4.94798 9.7294L8.74196 13.8498C8.88091 14.0008 9.07536 14.0885 9.2804 14.0927C9.28591 14.093 9.29122 14.093 9.29649 14.093C9.49575 14.093 9.68743 14.0138 9.82864 13.8731L19.4266 4.30026C19.7216 4.00632 19.7221 3.52894 19.4281 3.23421Z" fill="#3FBEA9"/>
<path d="M19.2462 9.74621C18.8299 9.74621 18.4925 10.0836 18.4925 10.5C18.4925 15.1829 14.6829 18.9925 10 18.9925C5.31734 18.9925 1.50754 15.1829 1.50754 10.5C1.50754 5.81734 5.31734 2.00754 10 2.00754C10.4163 2.00754 10.7538 1.67012 10.7538 1.25379C10.7538 0.837422 10.4163 0.5 10 0.5C4.48594 0.5 0 4.98594 0 10.5C0 16.0138 4.48594 20.5 10 20.5C15.5138 20.5 20 16.0138 20 10.5C20 10.0837 19.6626 9.74621 19.2462 9.74621Z" fill="#3FBEA9"/>
</g>
<defs>
<clipPath id="clip0">
<rect width="20" height="20" fill="white" transform="translate(0 0.5)"/>
</clipPath>
</defs>
</svg>
