<svg width="30" height="30" viewBox="0 0 30 30" fill="none" xmlns="http://www.w3.org/2000/svg">
<g clip-path="url(#clip0)">
<path d="M29.7357 5.95996L20.6374 14.9997L29.7357 24.0395C29.9002 23.6958 30 23.3157 30 22.9099V7.08959C30 6.68371 29.9002 6.30373 29.7357 5.95996Z" fill="#3FBEA9"/>
<path d="M27.3633 4.45312H2.63671C2.23083 4.45312 1.85085 4.55291 1.50708 4.71738L13.1358 16.2875C14.164 17.3157 15.836 17.3157 16.8642 16.2875L28.4929 4.71738C28.1491 4.55291 27.7691 4.45312 27.3633 4.45312Z" fill="#3FBEA9"/>
<path d="M0.264258 5.95996C0.0997852 6.30373 0 6.68371 0 7.08959V22.9099C0 23.3158 0.0997852 23.6958 0.264258 24.0395L9.36264 14.9997L0.264258 5.95996Z" fill="#3FBEA9"/>
<path d="M19.3945 16.2429L18.107 17.5304C16.3938 19.2436 13.6061 19.2436 11.8929 17.5304L10.6055 16.2429L1.50708 25.2827C1.85085 25.4472 2.23083 25.547 2.63671 25.547H27.3633C27.7691 25.547 28.1491 25.4472 28.4929 25.2827L19.3945 16.2429Z" fill="#3FBEA9"/>
</g>
<defs>
<clipPath id="clip0">
<rect width="30" height="30" fill="white"/>
</clipPath>
</defs>
</svg>
