<svg width="30" height="30" viewBox="0 0 30 30" fill="none" xmlns="http://www.w3.org/2000/svg">
<circle cx="15" cy="15" r="15" fill="#3FBEA9"/>
<path d="M9.36 21.5L14.976 15.686C15.48 15.146 15.876 14.666 16.164 14.246C16.452 13.814 16.596 13.352 16.596 12.86C16.596 12.452 16.452 12.086 16.164 11.762C15.876 11.438 15.444 11.276 14.868 11.276C14.28 11.276 13.812 11.492 13.464 11.924C13.128 12.344 12.96 12.89 12.96 13.562H9.972C9.972 12.662 10.158 11.84 10.53 11.096C10.914 10.352 11.478 9.758 12.222 9.314C12.966 8.87 13.884 8.648 14.976 8.648C16.02 8.648 16.896 8.852 17.604 9.26C18.312 9.656 18.846 10.16 19.206 10.772C19.566 11.384 19.746 12.008 19.746 12.644C19.746 13.316 19.578 13.94 19.242 14.516C18.918 15.092 18.48 15.614 17.928 16.082L15.012 18.71H20.052V21.5H9.36Z" fill="white"/>
</svg>
