<svg width="50" height="36" viewBox="0 0 50 36" fill="none" xmlns="http://www.w3.org/2000/svg">
<g opacity="0.1">
<path d="M39.4206 12.6484C40.421 7.44379 41.9216 3.72625 43.1722 1.49572C43.6724 0.628292 42.672 -0.363056 41.7966 0.132618C31.2921 6.20461 26.6651 15.1267 26.0399 22.1901C25.5397 28.386 29.7915 34.7058 36.1692 35.821C42.5469 36.9363 48.6745 32.7231 49.8 26.4033C51.0505 19.7117 46.2985 13.2679 39.4206 12.6484Z" fill="black"/>
<path d="M13.3511 12.6484C14.3463 7.44379 15.8392 3.72625 17.0833 1.49572C17.5809 0.628292 16.5856 -0.363056 15.7148 0.132618C5.26472 6.20461 0.661703 15.1267 0.0396748 22.1901C-0.457949 28.386 3.77185 34.7058 10.1165 35.821C16.4612 36.9363 22.5571 32.7231 23.8012 26.4033C25.0452 19.7117 20.3178 13.2679 13.3511 12.6484Z" fill="black"/>
</g>
</svg>
