<svg width="20" height="21" viewBox="0 0 20 21" fill="none" xmlns="http://www.w3.org/2000/svg">
<g clip-path="url(#clip0)">
<path d="M18.4211 13.6684C17.1873 13.6684 15.979 13.4758 14.8337 13.0979C14.2747 12.9053 13.64 13.0537 13.2726 13.4284L11.0021 15.1432C8.39685 13.7527 6.72948 12.0863 5.35792 9.50001L7.02632 7.28316C7.44632 6.86316 7.59686 6.24841 7.41686 5.67264C7.0358 4.52 6.84213 3.31053 6.84213 2.07895C6.84213 1.20841 6.13372 0.5 5.26318 0.5H1.57895C0.708405 0.5 0 1.20841 0 2.07895C0 12.2358 8.26422 20.5 18.4211 20.5C19.2916 20.5 20 19.7916 20 18.9211V15.2474C20 14.3768 19.2916 13.6684 18.4211 13.6684Z" fill="#3FBEA9"/>
</g>
<defs>
<clipPath id="clip0">
<rect width="20" height="20" fill="white" transform="translate(0 0.5)"/>
</clipPath>
</defs>
</svg>
