<svg width="60" height="60" viewBox="0 0 60 60" fill="none" xmlns="http://www.w3.org/2000/svg">
<g clip-path="url(#clip0)">
<path d="M58.4429 1.56823C56.3841 -0.505517 53.0656 -0.525322 51.031 1.52405L15.5548 37.2573L20.9492 42.6787L58.4429 1.56823C58.4429 1.56835 58.4429 1.56835 58.4429 1.56823Z" fill="#A65342"/>
<path d="M58.4868 9.03402C60.5214 6.98465 60.5018 3.64223 58.4429 1.56836L19.2826 41.0123L23.0106 44.7672L58.4868 9.03402Z" fill="#803B2D"/>
<path d="M2.08805 30.2261V32.0424C2.08805 38.3684 4.14528 44.3359 8.03719 49.2997L8.15567 49.4509L18.0197 57.3033L18.1941 57.3849C21.9011 59.1199 25.8706 59.9998 29.9924 59.9998L34.9001 45.8374L29.9924 30.226H2.08805V30.2261Z" fill="#FFF5F5"/>
<path d="M29.9924 30.2261V59.9998C37.4459 59.9998 44.4532 57.0917 49.7236 51.8112C54.994 46.5306 57.8966 39.5099 57.8966 32.0422V30.226H29.9924V30.2261Z" fill="#E6E9F2"/>
<path d="M9.60059 44.0588C14.4514 44.0588 18.398 48.0283 18.398 52.9077V59.9625L9.19898 55.7414L0 44.0588H9.60059Z" fill="#00A98F"/>
<path d="M18.398 59.9625H8.79738C3.94652 59.9625 0 56.0006 0 51.1309V44.0588L18.398 59.9625Z" fill="#00DC80"/>
</g>
<defs>
<clipPath id="clip0">
<rect width="60" height="60" fill="white"/>
</clipPath>
</defs>
</svg>
