<svg width="60" height="60" viewBox="0 0 60 60" fill="none" xmlns="http://www.w3.org/2000/svg">
<path d="M49.1142 13.0773L37.9697 16.7576L33.576 5.82378C39.3458 3.31597 46.2462 1.7494 46.5372 1.6839L48.4582 1.25171L48.6707 3.20933C48.6915 3.40233 49.1829 7.99702 49.1142 13.0773Z" fill="#005457"/>
<path d="M43.2167 38.4748C40.8057 38.4748 38.4438 37.7777 36.3914 36.4353L39.3885 14.1768C45.3137 11.4206 52.9906 9.67646 53.3145 9.60357L55.2356 9.17126L55.448 11.1288C55.4662 11.2966 55.8943 15.2913 55.8984 19.9515C55.9042 26.5481 55.0932 30.8931 53.4192 33.2351C51.5279 35.8804 48.7264 37.6651 45.5306 38.2605C44.76 38.4038 43.9857 38.4748 43.2167 38.4748Z" fill="#007579"/>
<path d="M10.8858 13.0773L22.0303 16.7576L26.424 5.82378C20.6542 3.31597 13.7538 1.7494 13.4629 1.6839L11.5418 1.25171L11.3293 3.20933C11.3085 3.40233 10.8171 7.99702 10.8858 13.0773Z" fill="#007579"/>
<path d="M16.7832 38.4748C19.1942 38.4748 21.5561 37.7777 23.6086 36.4353L20.6114 14.1768C14.6864 11.4204 7.00931 9.67633 6.68541 9.60332L4.76447 9.17102L4.55201 11.1285C4.53384 11.2963 4.10576 15.291 4.10166 19.9512C4.0958 26.5478 4.90685 30.8929 6.58087 33.2349C8.47216 35.8802 11.2736 37.6648 14.4695 38.2602C15.24 38.4038 16.0142 38.4748 16.7832 38.4748Z" fill="#00A98F"/>
<path d="M0 45.0306V54.5478L4.54535 59.0931H30L32.5781 52.1791L30 45.0306H0Z" fill="#FFF5F5"/>
<path d="M30 45.0306V59.0931H55.4547L60 54.5478V45.0306H30Z" fill="#E6E9F2"/>
<path d="M28.6887 2.37557C28.5581 2.52193 25.4543 6.00861 22.3003 10.4125C17.9212 16.5268 15.7009 21.2735 15.7009 24.5206C15.7009 32.4052 22.1155 38.8198 30.0001 38.8198L31.2891 19.9526L30 0.906738L28.6887 2.37557Z" fill="#00DC80"/>
<path d="M44.2992 24.5205C44.2992 21.2735 42.0789 16.5268 37.6999 10.4124C34.5458 6.0085 31.442 2.52182 31.3113 2.37545L30 0.906738V38.8196C37.8846 38.8197 44.2992 32.4051 44.2992 24.5205Z" fill="#00A98F"/>
</svg>
