<svg width="60" height="60" viewBox="0 0 60 60" fill="none" xmlns="http://www.w3.org/2000/svg">
<path d="M14.1888 17.5824H0V21.2199C0 26.0615 3.91289 30.0004 8.72262 30.0004L15.8903 32.7412L22.942 30.0004V26.3663C22.942 21.5229 19.0138 17.5824 14.1888 17.5824Z" fill="#00DC80"/>
<path d="M8.72262 30.0024C3.91289 30.0024 0 33.9413 0 38.783V42.4205H14.1888C19.0138 42.4205 22.942 38.48 22.942 33.6365V30.0024H8.72262Z" fill="#00A98F"/>
<path d="M45.7031 40.7715C40.837 40.7715 36.881 44.7119 36.881 49.5554V53.193H51.2109C56.0572 53.193 60 49.2526 60 44.4091V40.7715H45.7031Z" fill="#00A98F"/>
<path d="M22.942 0V15.0668L26.4723 18.9386L30.001 15.0668L32.789 7.5334L30.001 0H22.942Z" fill="#00DC80"/>
<path d="M30.001 0V15.0668L33.5299 17.6374L37.0579 15.0668V0H30.001Z" fill="#00A98F"/>
<path d="M22.942 15.0463V29.9986L26.4723 33.5686L30.001 29.9986L32.789 22.5224L30.001 15.0463H22.942Z" fill="#00A98F"/>
<path d="M30.001 15.0463V29.9986L33.5299 33.5686L37.0579 29.9986V15.0463H30.001Z" fill="#007579"/>
<path d="M22.942 30.0015V45.0684L26.4723 49.2826L30.001 45.0684L32.789 37.051L30.001 30.0015H22.942Z" fill="#00DC80"/>
<path d="M30.001 30.0015H37.0578V45.0683H30.001V30.0015Z" fill="#00A98F"/>
<path d="M22.942 45.0479V60H30.001L33.5299 52.9216L30.001 45.0479H22.942Z" fill="#00A98F"/>
<path d="M30.001 45.0479H37.0578V60H30.001V45.0479Z" fill="#007579"/>
</svg>
