<svg width="18" height="19" viewBox="0 0 18 19" fill="none" xmlns="http://www.w3.org/2000/svg">
<g clip-path="url(#clip0)">
<path d="M16.071 0.5H7.71389C6.64877 0.5 5.78532 1.36345 5.78532 2.42857V6.28571C5.78532 6.64076 6.07313 6.92858 6.42818 6.92858C6.78324 6.92858 7.07105 6.64076 7.07105 6.28571V2.42857C7.07105 2.07352 7.35887 1.7857 7.71392 1.7857H16.0711C16.4261 1.7857 16.7139 2.07352 16.7139 2.42857V16.5714C16.7139 16.9265 16.4261 17.2143 16.0711 17.2143H7.71389C7.35883 17.2143 7.07102 16.9265 7.07102 16.5714V12.7143C7.07102 12.3592 6.7832 12.0714 6.42815 12.0714C6.07309 12.0714 5.78528 12.3592 5.78528 12.7143V16.5714C5.78528 17.6365 6.64873 18.5 7.71385 18.5H16.071C17.1361 18.5 17.9996 17.6365 17.9996 16.5714V2.42857C17.9996 1.36345 17.1362 0.5 16.071 0.5Z" fill="#3FBEA9"/>
<path d="M0.643345 8.85715H11.3057L9.18879 6.74021C8.94215 6.48483 8.94923 6.07787 9.20461 5.83122C9.45375 5.59064 9.84869 5.59064 10.0978 5.83122L13.3121 9.04549C13.3718 9.10523 13.419 9.17623 13.4509 9.25443C13.5159 9.41169 13.5159 9.58831 13.4509 9.74557C13.4188 9.82403 13.3714 9.89526 13.3115 9.95515L10.0972 13.1694C9.85053 13.4248 9.44358 13.4319 9.18819 13.1852C8.93281 12.9386 8.92573 12.5316 9.17237 12.2763C9.17753 12.2709 9.18281 12.2656 9.18819 12.2604L11.3057 10.1429H0.643307C0.288255 10.1429 0.00043869 9.85503 0.00043869 9.49998C0.00043869 9.14493 0.288292 8.85715 0.643345 8.85715Z" fill="#3FBEA9"/>
</g>
<defs>
<clipPath id="clip0">
<rect width="18" height="18" fill="white" transform="translate(0 0.5)"/>
</clipPath>
</defs>
</svg>
