<svg width="40" height="40" viewBox="0 0 40 40" fill="none" xmlns="http://www.w3.org/2000/svg">
<g clip-path="url(#clip0)">
<path d="M20 0C8.95276 0 0 8.95276 0 20C0 25.9606 2.6063 31.315 6.74803 34.9842C10.2835 38.1024 14.9213 40 20 40C25.0866 40 29.7244 38.1024 33.252 34.9764C37.3937 31.315 40 25.9606 40 20C40 8.95276 31.0472 0 20 0Z" fill="#1175BB"/>
<path d="M31.685 33.3544C30.6614 32.5906 28.8031 31.3229 26.7795 30.3859C24.7559 29.4567 23.5669 27.2756 23.8897 25.0788C23.8897 25.0473 23.8976 25.0158 23.9055 24.9764C23.9055 24.9764 28.5118 21.8583 27.874 18.8189C27.874 18.8189 28.0157 18.8268 28.2283 18.8111C30.2598 18.6221 30.3858 15.5985 28.3779 15.2756C28.3622 15.2756 28.3386 15.2677 28.3228 15.2677L28.2598 14.937C28.874 12.7874 30.3701 6.27561 25.8425 6.90553C25.8425 6.90553 22.5905 1.52758 15.7165 4.11813C8.83463 6.70081 10.6299 12.8662 10.6299 12.8662L11.4803 15.3229C9.62991 15.7796 9.80314 18.6378 11.7716 18.8189C11.9842 18.8347 12.1338 18.8268 12.1338 18.8268C11.4882 21.8662 16.0945 24.9843 16.0945 24.9843C16.1023 25.0237 16.1023 25.0552 16.1102 25.0866C16.4252 27.2835 15.2362 29.4646 13.2205 30.3937C11.189 31.3307 9.33857 32.6063 8.31495 33.3622C7.70077 33.8111 7.15747 34.3544 6.74014 34.9922C10.2834 38.1024 14.9212 40 20 40C25.0866 40 29.7244 38.1024 33.252 34.9764C32.8425 34.3465 32.2992 33.8032 31.685 33.3544Z" fill="white"/>
</g>
<defs>
<clipPath id="clip0">
<rect width="40" height="40" fill="white"/>
</clipPath>
</defs>
</svg>
