<svg width="70" height="70" viewBox="0 0 70 70" fill="none" xmlns="http://www.w3.org/2000/svg">
<path d="M6.5625 25.1562H10.9375V36.0938H6.5625V25.1562Z" fill="#F0BC5E"/>
<path d="M15.3125 21.875H19.6875V30.625H15.3125V21.875Z" fill="#F0BC5E"/>
<path d="M24.0625 16.4062H28.4375V22.9688H24.0625V16.4062Z" fill="#F0BC5E"/>
<path d="M52.5 33.9062C43.4536 33.9062 36.0938 26.5464 36.0938 17.5C36.0938 8.45359 43.4536 1.09375 52.5 1.09375C61.5464 1.09375 68.9062 8.45359 68.9062 17.5C68.9062 26.5464 61.5464 33.9062 52.5 33.9062ZM52.5 6.5625C46.4691 6.5625 41.5625 11.4691 41.5625 17.5C41.5625 23.5309 46.4691 28.4375 52.5 28.4375C58.5309 28.4375 63.4375 23.5309 63.4375 17.5C63.4375 11.4691 58.5309 6.5625 52.5 6.5625Z" fill="#F0BC5E"/>
<path d="M51.4062 25.1562H53.5938V22.9688C55.4028 22.9688 56.875 21.4966 56.875 19.6875C56.875 17.8784 55.4028 16.4062 53.5938 16.4062H51.4062C50.8025 16.4062 50.3125 15.9162 50.3125 15.3125C50.3125 14.7088 50.8025 14.2188 51.4062 14.2188H54.6875V15.3125H56.875V12.0312H53.5938V9.84375H51.4062V12.0312C49.5972 12.0312 48.125 13.5034 48.125 15.3125C48.125 17.1216 49.5972 18.5938 51.4062 18.5938H53.5938C54.1975 18.5938 54.6875 19.0837 54.6875 19.6875C54.6875 20.2913 54.1975 20.7812 53.5938 20.7812H50.3125V19.6875H48.125V22.9688H51.4062V25.1562Z" fill="black"/>
<path d="M7.65625 19.6875H9.84375V25.1562H7.65625V19.6875Z" fill="black"/>
<path d="M7.65625 36.0938H9.84375V41.5625H7.65625V36.0938Z" fill="black"/>
<path d="M16.4062 16.4062H18.5938V21.875H16.4062V16.4062Z" fill="black"/>
<path d="M16.4062 30.625H18.5938V36.0938H16.4062V30.625Z" fill="black"/>
<path d="M25.1562 10.9375H27.3438V16.4062H25.1562V10.9375Z" fill="black"/>
<path d="M25.1562 22.9688H27.3438V28.4375H25.1562V22.9688Z" fill="black"/>
<path d="M62.3438 66.7187H57.9688V32.9492C57.2578 33.2018 56.5327 33.4228 55.7812 33.5759V66.7187H51.4062V37.6403L55.4148 33.6317C54.4677 33.8023 53.4964 33.9062 52.5 33.9062C52.3545 33.9062 52.2134 33.8887 52.0691 33.8843L46.5784 39.3749H36.6406L30.0781 48.1249H17.0034L1.09375 66.3074V68.9062H64.5312V28.6168C63.863 29.3398 63.1312 30.0004 62.3438 30.5943V66.7187ZM16.4062 66.7187H12.0312V57.1298L16.4062 52.1303V66.7187ZM18.5938 50.3124H22.9688V66.7187H18.5938V50.3124ZM25.1562 50.3124H29.5312V66.7187H25.1562V50.3124ZM31.7188 49.5829L36.0938 43.7499V66.7187H31.7188V49.5829ZM38.2812 41.5624H42.6562V66.7187H38.2812V41.5624ZM9.84375 59.6301V66.7187H3.64109L9.84375 59.6301ZM49.2188 66.7187H44.8438V41.5624H47.4841L49.2188 39.8278V66.7187Z" fill="black"/>
<path d="M15.7916 45.9375H28.9352L36.5914 37.1875H45.2977L48.9716 33.5136C48.1556 33.3342 47.367 33.0871 46.6014 32.7906L44.391 35H35.5972L27.9409 43.75H14.8345L1.38469 58.3199L2.99141 59.8041L15.7916 45.9375Z" fill="black"/>
<path d="M52.5 29.5312C59.1336 29.5312 64.5312 24.1336 64.5312 17.5C64.5312 10.8664 59.1336 5.46875 52.5 5.46875C45.8664 5.46875 40.4688 10.8664 40.4688 17.5C40.4688 24.1336 45.8664 29.5312 52.5 29.5312ZM52.5 7.65625C57.9283 7.65625 62.3438 12.0717 62.3438 17.5C62.3438 22.9283 57.9283 27.3438 52.5 27.3438C47.0717 27.3438 42.6562 22.9283 42.6562 17.5C42.6562 12.0717 47.0717 7.65625 52.5 7.65625Z" fill="black"/>
</svg>
