<svg width="68" height="68" viewBox="0 0 68 68" fill="none" xmlns="http://www.w3.org/2000/svg">
<path d="M55.875 24.1562C49.2414 24.1562 43.8438 18.7586 43.8438 12.125C43.8438 5.49141 49.2414 0.09375 55.875 0.09375C62.5086 0.09375 67.9062 5.49141 67.9062 12.125C67.9062 18.7586 62.5086 24.1562 55.875 24.1562Z" fill="#F0BC5E"/>
<path d="M26.3438 24.1562H6.65625C5.44984 24.1562 4.46875 23.1752 4.46875 21.9688V13.2188C4.46875 12.0123 5.44984 11.0312 6.65625 11.0312H26.3438C27.5502 11.0312 28.5312 12.0123 28.5312 13.2188V21.9688C28.5312 23.1752 27.5502 24.1562 26.3438 24.1562Z" fill="#F0BC5E"/>
<path d="M16.5 67.9062C9.86641 67.9062 4.46875 62.5086 4.46875 55.875C4.46875 49.2414 9.86641 43.8438 16.5 43.8438C23.1336 43.8438 28.5312 49.2414 28.5312 55.875C28.5312 62.5086 23.1336 67.9062 16.5 67.9062Z" fill="#F0BC5E"/>
<path d="M54.7812 19.7812H56.9688V17.5938C58.7778 17.5938 60.25 16.1216 60.25 14.3125C60.25 12.5034 58.7778 11.0312 56.9688 11.0312H54.7812C54.1786 11.0312 53.6875 10.5402 53.6875 9.9375C53.6875 9.33484 54.1786 8.84375 54.7812 8.84375H58.0625V9.9375H60.25V6.65625H56.9688V4.46875H54.7812V6.65625C52.9722 6.65625 51.5 8.12844 51.5 9.9375C51.5 11.7466 52.9722 13.2188 54.7812 13.2188H56.9688C57.5714 13.2188 58.0625 13.7098 58.0625 14.3125C58.0625 14.9152 57.5714 15.4062 56.9688 15.4062H53.6875V14.3125H51.5V17.5938H54.7812V19.7812Z" fill="black"/>
<path d="M8.84375 26.3438H6.65625C5.44984 26.3438 4.46875 27.3248 4.46875 28.5312V30.7188C4.46875 31.9252 5.44984 32.9062 6.65625 32.9062H8.84375C10.0502 32.9062 11.0312 31.9252 11.0312 30.7188V28.5312C11.0312 27.3248 10.0502 26.3438 8.84375 26.3438ZM6.65625 30.7188V28.5312H8.84375L8.84484 30.7188H6.65625Z" fill="black"/>
<path d="M15.4062 32.9062H17.5938C18.8002 32.9062 19.7812 31.9252 19.7812 30.7188V28.5312C19.7812 27.3248 18.8002 26.3438 17.5938 26.3438H15.4062C14.1998 26.3438 13.2188 27.3248 13.2188 28.5312V30.7188C13.2188 31.9252 14.1998 32.9062 15.4062 32.9062ZM15.4062 28.5312H17.5938L17.5948 30.7188H15.4062V28.5312Z" fill="black"/>
<path d="M24.1562 32.9062H26.3438C27.5502 32.9062 28.5312 31.9252 28.5312 30.7188V28.5312C28.5312 27.3248 27.5502 26.3438 26.3438 26.3438H24.1562C22.9498 26.3438 21.9688 27.3248 21.9688 28.5312V30.7188C21.9688 31.9252 22.9498 32.9062 24.1562 32.9062ZM24.1562 28.5312H26.3438L26.3448 30.7188H24.1562V28.5312Z" fill="black"/>
<path d="M8.84375 35.0938H6.65625C5.44984 35.0938 4.46875 36.0748 4.46875 37.2812V39.4688C4.46875 40.6752 5.44984 41.6562 6.65625 41.6562H8.84375C10.0502 41.6562 11.0312 40.6752 11.0312 39.4688V37.2812C11.0312 36.0748 10.0502 35.0938 8.84375 35.0938ZM6.65625 39.4688V37.2812H8.84375L8.84484 39.4688H6.65625Z" fill="black"/>
<path d="M13.2188 39.4688C13.2188 40.6752 14.1998 41.6562 15.4062 41.6562H17.5938C18.8002 41.6562 19.7812 40.6752 19.7812 39.4688V37.2812C19.7812 36.0748 18.8002 35.0938 17.5938 35.0938H15.4062C14.1998 35.0938 13.2188 36.0748 13.2188 37.2812V39.4688ZM15.4062 37.2812H17.5938L17.5948 39.4688H15.4062V37.2812Z" fill="black"/>
<path d="M26.3438 41.6562C27.5502 41.6562 28.5312 40.6752 28.5312 39.4688V37.2812C28.5312 36.0748 27.5502 35.0938 26.3438 35.0938H24.1562C22.9498 35.0938 21.9688 36.0748 21.9688 37.2812V39.4688C21.9688 40.6752 22.9498 41.6562 24.1562 41.6562H26.3438ZM24.1562 37.2812H26.3438L26.3448 39.4688H24.1562V37.2812Z" fill="black"/>
<path d="M66.3236 53.3134L56.1331 48.2188H32.9062V40.2716L37.3491 35.6166C37.9802 35.9688 38.6966 36.1875 39.4688 36.1875C40.9125 36.1875 42.1834 35.4766 42.9808 34.3959L50.5036 37.4059C50.4478 37.7209 50.4062 38.0425 50.4062 38.375C50.4062 41.3905 52.8595 43.8438 55.875 43.8438C58.8905 43.8438 61.3438 41.3905 61.3438 38.375C61.3438 35.7347 59.4614 33.5253 56.9688 33.0167V24.1005C56.6078 24.1333 56.2447 24.1562 55.875 24.1562C55.5053 24.1562 55.1422 24.1333 54.7812 24.1005V33.0167C53.3353 33.3109 52.0994 34.1805 51.313 35.3727L43.788 32.3627C43.8109 32.18 43.8438 32.0006 43.8438 31.8125C43.8438 29.3997 41.8816 27.4375 39.4688 27.4375C37.0559 27.4375 35.0938 29.3997 35.0938 31.8125C35.0938 32.658 35.3453 33.4411 35.7631 34.1105L32.9062 37.103V12.125C32.9062 9.10953 30.453 6.65625 27.4375 6.65625H5.5625C2.54703 6.65625 0.09375 9.10953 0.09375 12.125V49.3125C0.09375 51.9736 2.00672 54.1917 4.52891 54.6763C4.60219 53.9391 4.74984 53.2238 4.95 52.5314C3.43406 52.2438 2.28125 50.9127 2.28125 49.3125V12.125C2.28125 10.3159 3.75344 8.84375 5.5625 8.84375H27.4375C29.2466 8.84375 30.7188 10.3159 30.7188 12.125V39.3955L23.9725 46.4633C24.5445 46.9183 25.0717 47.4258 25.5519 47.9759L30.7188 42.563V48.2188H25.7739C26.3284 48.8892 26.8031 49.6253 27.2034 50.4062H53.8297L52.3717 52.5905L53.8297 54.7758H28.4755C28.5083 55.1389 28.5312 55.5042 28.5312 55.875C28.5312 56.2425 28.5083 56.6045 28.4766 56.9633H53.8319L52.3728 59.153L53.8319 61.3438H27.2034C26.8031 62.1247 26.3284 62.8608 25.7739 63.5312H56.1331L66.3236 58.4366C67.2992 57.9477 67.9062 56.9666 67.9062 55.875C67.9062 54.7834 67.2992 53.8023 66.3236 53.3134ZM55.875 35.0938C57.6841 35.0938 59.1562 36.5659 59.1562 38.375C59.1562 40.1841 57.6841 41.6562 55.875 41.6562C54.0659 41.6562 52.5938 40.1841 52.5938 38.375C52.5938 36.5659 54.0659 35.0938 55.875 35.0938ZM39.4688 29.625C40.6752 29.625 41.6562 30.6061 41.6562 31.8125C41.6562 33.0189 40.6752 34 39.4688 34C38.2623 34 37.2812 33.0189 37.2812 31.8125C37.2812 30.6061 38.2623 29.625 39.4688 29.625ZM65.3447 56.4798L56.2502 61.0277L55.0022 59.1541L57.1897 55.8706L55.0022 52.5916L56.2491 50.7234L65.3447 55.2713C65.5755 55.3861 65.7188 55.618 65.7188 55.875C65.7188 56.132 65.5755 56.3639 65.3447 56.4798Z" fill="black"/>
<path d="M8.84375 43.8438H6.65625C5.44984 43.8438 4.46875 44.8248 4.46875 46.0312V48.2188C4.46875 49.1473 5.05281 49.937 5.86984 50.2542C6.25484 49.5291 6.70766 48.8466 7.22609 48.2188H6.65625V46.0312H8.84375V46.6011C9.47156 46.0827 10.1541 45.6298 10.8792 45.2448C10.562 44.4278 9.77234 43.8438 8.84375 43.8438Z" fill="black"/>
<path d="M17.5938 48.2188H15.4062V50.4062C13.5972 50.4062 12.125 51.8784 12.125 53.6875C12.125 55.4966 13.5972 56.9688 15.4062 56.9688H17.5938C18.1964 56.9688 18.6875 57.4587 18.6875 58.0625C18.6875 58.6663 18.1964 59.1562 17.5938 59.1562H14.3125V58.0625H12.125V61.3438H15.4062V63.5312H17.5938V61.3438C19.4028 61.3438 20.875 59.8716 20.875 58.0625C20.875 56.2534 19.4028 54.7812 17.5938 54.7812H15.4062C14.8036 54.7812 14.3125 54.2912 14.3125 53.6875C14.3125 53.0838 14.8036 52.5938 15.4062 52.5938H18.6875V53.6875H20.875V50.4062H17.5938V48.2188Z" fill="black"/>
</svg>
